<?xml version="1.0" encoding="UTF-8"?>
<svg version="1.1" xmlns="http://www.w3.org/2000/svg" width="500" height="500">
<path d="M0 0 C4.66724617 5.06502283 4.31263083 11.10187788 4.29429626 17.63580322 C4.29373956 18.3387677 4.29318285 19.04173217 4.29260927 19.7659986 C4.28958538 22.10998534 4.27940941 24.45388556 4.26928711 26.79785156 C4.26572867 28.48379426 4.26264331 30.169738 4.25999451 31.85568237 C4.25345116 35.48312885 4.24389578 39.11055055 4.23209953 42.7379837 C4.21375173 48.48984739 4.20419152 54.24170515 4.19618225 59.99359131 C4.17207793 76.34926996 4.13636427 92.70491225 4.09155273 109.06054688 C4.06687358 118.09648728 4.04958913 127.13241313 4.03999335 136.16838241 C4.03350532 141.86859772 4.01806115 147.56869216 3.99567592 153.26886606 C3.98381014 156.84246682 3.98057068 160.41603961 3.97957802 163.98965836 C3.97745946 165.62691963 3.97197061 167.26418125 3.9625473 168.90141678 C3.91572989 177.37554962 4.16406432 185.74060605 5.03663635 194.17474365 C5.10905043 194.91397953 5.1814645 195.65321541 5.25607294 196.41485238 C5.8777155 201.7975073 7.38692421 206.05647462 10.1640625 210.6796875 C11.1875 212.4296875 11.1875 212.4296875 11.1875 214.4296875 C-11.2525 214.4296875 -33.6925 214.4296875 -56.8125 214.4296875 C-56.8125 210.47884406 -55.33792513 207.68739076 -53.78515625 204.09765625 C-51.64647902 198.23132474 -51.61778972 192.25382199 -51.49609375 186.0859375 C-51.47531265 185.19861938 -51.45453156 184.31130127 -51.43312073 183.39709473 C-51.36807135 180.57469966 -51.30903355 177.75221411 -51.25 174.9296875 C-51.20675794 173.03254344 -51.16314192 171.13540786 -51.11914062 169.23828125 C-51.040055 165.75199828 -50.96151795 162.26571112 -50.88842773 158.77929688 C-50.87367905 158.08235718 -50.85893036 157.38541748 -50.84373474 156.6673584 C-50.80540943 153.92171583 -50.8125 151.17559754 -50.8125 148.4296875 C-70.2825 148.4296875 -89.7525 148.4296875 -109.8125 148.4296875 C-107.73071323 161.5229846 -107.73071323 161.5229846 -104.3125 174.1796875 C-104.06822266 174.9001123 -103.82394531 175.62053711 -103.57226562 176.36279297 C-99.20243973 188.55107815 -93.06250814 200.72994741 -84.93164062 210.83154297 C-83.8125 212.4296875 -83.8125 212.4296875 -83.8125 214.4296875 C-105.2625 214.4296875 -126.7125 214.4296875 -148.8125 214.4296875 C-151.94043314 207.39183793 -154.29199914 201.06771908 -156.3125 193.7421875 C-156.61438232 192.65147949 -156.91626465 191.56077148 -157.22729492 190.43701172 C-160.08023102 179.86314978 -162.19222068 169.25619536 -163.8125 158.4296875 C-163.92964355 157.69282715 -164.04678711 156.9559668 -164.16748047 156.19677734 C-167.64393016 133.65925876 -168.14135123 107.66295556 -162.8125 85.4296875 C-162.64621094 84.70152832 -162.47992188 83.97336914 -162.30859375 83.22314453 C-155.11354899 52.41103157 -137.77865478 20.75718624 -110.6484375 3.109375 C-95.77568266 -5.69955693 -81.13963718 -12.3378263 -63.8125 -14.5703125 C-62.41451172 -14.77140625 -62.41451172 -14.77140625 -60.98828125 -14.9765625 C-40.61766699 -17.27184298 -15.97113561 -13.83706145 0 0 Z M-87.875 49.8046875 C-96.82490204 58.85002857 -102.20390895 69.80938811 -106.3125 81.7421875 C-106.55597168 82.44617676 -106.79944336 83.15016602 -107.05029297 83.87548828 C-108.97357538 89.93193129 -109.20776138 94.77756264 -109.8125 101.4296875 C-90.0125 101.4296875 -70.2125 101.4296875 -49.8125 101.4296875 C-49.8125 79.3196875 -49.8125 57.2096875 -49.8125 34.4296875 C-65.14442081 34.4296875 -76.82093792 39.23244686 -87.875 49.8046875 Z " fill="#0049AC" transform="translate(258.8125,141.5703125)"/>
<path d="M0 0 C-1.51367188 3.61328125 -1.51367188 3.61328125 -3.02734375 7.2265625 C-7.90616982 21.1380746 -4.66121881 38.53137266 -3.5 52.9375 C-3.28341908 55.66171975 -3.06872331 58.3860512 -2.85803223 61.11073303 C-2.72812025 62.78731854 -2.59484191 64.46364836 -2.45739746 66.13963318 C-2.04296551 71.44250681 -1.94433842 76.68067433 -2 82 C-1.37996094 81.68546875 -0.75992188 81.3709375 -0.12109375 81.046875 C10.18137255 76.06809944 21.49136135 72.45325118 33 72 C34.43859375 71.94005859 34.43859375 71.94005859 35.90625 71.87890625 C58.80283247 71.4065253 78.92731393 77.71140093 95.7265625 93.66796875 C107.45587416 105.69958225 113.90231731 119.88848164 118 136 C118.18691406 136.72501709 118.37382812 137.45003418 118.56640625 138.19702148 C120.27496164 145.62389819 120.38504194 152.96601168 120.375 160.5625 C120.37478851 161.22441345 120.37457703 161.8863269 120.37435913 162.56829834 C120.30031359 185.80877279 113.58985053 206.41094216 97.44140625 223.65234375 C82.00032626 238.50048627 61.27259659 245.68814314 40.0625 246.25 C24.34434053 245.81338446 9.96945206 242.36202855 -3.6328125 234.33203125 C-9.53676862 231.00983812 -13.6150493 230.86858369 -20.23828125 231.4609375 C-21.11904831 231.53035553 -21.99981537 231.59977356 -22.90727234 231.67129517 C-25.71004451 231.89475828 -28.51113115 232.13464231 -31.3125 232.375 C-33.21670892 232.52973215 -35.12100543 232.68339027 -37.02539062 232.8359375 C-41.68470056 233.21152001 -46.34256804 233.60183151 -51 234 C-51 230.41502275 -50.66171632 228.65956527 -49.52241516 225.39466858 C-47.86763611 220.05209078 -47.5515666 215.25096023 -47.64135742 209.68530273 C-47.6504246 208.66655028 -47.65949179 207.64779783 -47.66883373 206.5981741 C-47.93029398 191.5714913 -49.29072447 176.58670424 -50.5262835 161.61579823 C-50.88727668 157.22143946 -51.23840197 152.82628918 -51.59111023 148.43125916 C-52.18374558 141.06583194 -52.78417333 133.70107215 -53.3894043 126.33666992 C-54.08510731 117.87018617 -54.76808715 109.40274776 -55.44438392 100.9346934 C-56.10110199 92.71574592 -56.76703924 84.4975693 -57.43700218 76.2796917 C-57.71941863 72.81349117 -57.99868635 69.34705951 -58.27526283 65.88038826 C-58.60191865 61.79110234 -58.93674757 57.70255995 -59.27745819 53.61442184 C-59.39991486 52.13015302 -59.51974976 50.64566469 -59.63650322 49.16093636 C-60.25586326 41.30786173 -61.12854853 33.55295576 -62.45915222 25.78807068 C-62.57786472 25.081548 -62.69657721 24.37502533 -62.81888705 23.64709288 C-63.75477652 18.46948646 -65.33636243 14.500629 -68 10 C-68 9.34 -68 8.68 -68 8 C-68.66 8 -69.32 8 -70 8 C-70 7.01 -70 6.02 -70 5 C-62.49781375 4.34249303 -54.99519083 3.69017763 -47.49199963 3.04424286 C-44.00689557 2.74405816 -40.52195686 2.44217708 -37.03735352 2.13623047 C-33.01883506 1.78348506 -28.99968466 1.43845844 -24.98046875 1.09375 C-23.74668991 0.9843811 -22.51291107 0.87501221 -21.241745 0.7623291 C-14.13987604 0.16005218 -7.12708357 -0.14312667 0 0 Z M19 126 C9.40117912 137.96708891 8.90581577 152.32124036 10 167 C11.73119517 178.80474389 16.41941944 188.67989068 25.66796875 196.390625 C32.22901127 200.50394967 40.5947293 199.84083751 48 199 C54.8475582 197.01596391 60.33953052 193.16198154 64 187 C70.08846219 173.19818058 71.93930865 155.62662179 67.375 141.0625 C63.62457979 132.10096961 58.24291294 124.45003084 49.625 119.6875 C38.41643025 116.75192221 27.77108059 117.88423003 19 126 Z " fill="#0048AA" transform="translate(332,127)"/>
<path d="M0 0 C0.66 0 1.32 0 2 0 C2.33 22.44 2.66 44.88 3 68 C-1.08232527 70.04116263 -2.56156024 70.22769831 -6.96191406 70.13525391 C-8.76332855 70.10499619 -8.76332855 70.10499619 -10.60113525 70.0741272 C-11.89291687 70.04193085 -13.18469849 70.0097345 -14.515625 69.9765625 C-15.85510555 69.9503813 -17.19460427 69.92511542 -18.53411865 69.90072632 C-22.05244017 69.83421276 -25.57037746 69.75529101 -29.08837891 69.67376709 C-32.68116557 69.5927123 -36.27417699 69.52341619 -39.8671875 69.453125 C-46.91172234 69.3135795 -53.95591843 69.1609219 -61 69 C-62.01655615 62.63759266 -61.54337901 59.79890413 -59 54 C-58 56 -58 56 -60 67 C-40.2 67 -20.4 67 0 67 C0 44.89 0 22.78 0 0 Z " fill="#124891" transform="translate(209,176)"/>
<path d="M0 0 C0.33 0 0.66 0 1 0 C1.12117188 1.21558594 1.24234375 2.43117187 1.3671875 3.68359375 C1.53597078 5.26828117 1.70526816 6.8529139 1.875 8.4375 C1.95363281 9.23994141 2.03226562 10.04238281 2.11328125 10.86914062 C2.33845763 12.92170994 2.66222587 14.96293009 3 17 C3.66 17.33 4.32 17.66 5 18 C5.625 20.0625 5.625 20.0625 6 22 C5.34 22 4.68 22 4 22 C4.144375 22.77085937 4.28875 23.54171875 4.4375 24.3359375 C4.623125 25.33882812 4.80875 26.34171875 5 27.375 C5.185625 28.37273437 5.37125 29.37046875 5.5625 30.3984375 C6 33 6 33 6 35 C6.66 35.66 7.32 36.32 8 37 C8.75 40.4375 8.75 40.4375 9 44 C8.34 44.99 7.68 45.98 7 47 C6.70974276 49.06045513 6.70974276 49.06045513 6.76953125 51.30859375 C6.77146484 52.13810547 6.77339844 52.96761719 6.77539062 53.82226562 C6.78763672 54.68529297 6.79988281 55.54832031 6.8125 56.4375 C6.8134668 57.72624023 6.8134668 57.72624023 6.81445312 59.04101562 C6.79084795 63.55130273 6.79084795 63.55130273 7.50439453 67.97973633 C8.07525301 70.30675795 8.11300677 72.37094382 8.09765625 74.765625 C8.09443359 75.65507812 8.09121094 76.54453125 8.08789062 77.4609375 C8.07951172 78.38132812 8.07113281 79.30171875 8.0625 80.25 C8.05798828 81.18585938 8.05347656 82.12171875 8.04882812 83.0859375 C8.03706918 85.39069041 8.02063426 87.69531227 8 90 C7.67 90 7.34 90 7 90 C6.23060693 81.2189239 5.4653117 72.43750221 4.7049036 63.65564346 C4.35149611 59.57559702 3.99680418 55.49567168 3.63891602 51.41601562 C0.60044307 16.75961963 0.60044307 16.75961963 0 0 Z " fill="#0B4693" transform="translate(271,154)"/>
<path d="M0 0 C0.33 0 0.66 0 1 0 C1.05534912 0.6705542 1.11069824 1.3411084 1.16772461 2.03198242 C1.42134011 5.08407737 1.67937638 8.13578314 1.9375 11.1875 C2.02451172 12.24259766 2.11152344 13.29769531 2.20117188 14.38476562 C2.28818359 15.40634766 2.37519531 16.42792969 2.46484375 17.48046875 C2.543396 18.41785889 2.62194824 19.35524902 2.70288086 20.32104492 C2.9918702 22.92669823 3.47952424 25.43242505 4 28 C4.26057946 31.76806167 4.44216397 35.53584039 4.62109375 39.30859375 C4.98417589 42.84583725 5.8559808 45.65594387 7 49 C7.125 51.44921875 7.125 51.44921875 7 53.6875 C6.80181019 57.27349691 6.87553799 57.81330698 9 61 C8.01 61.495 8.01 61.495 7 62 C6.94501872 63.37453198 6.90677178 64.74973578 6.875 66.125 C6.85179687 66.89070313 6.82859375 67.65640625 6.8046875 68.4453125 C6.88384667 71.07723652 6.88384667 71.07723652 8.0234375 73.67578125 C9.36470684 78.24146209 9.04644752 82.35036323 8.75 87.0625 C8.69005859 88.38991211 8.69005859 88.38991211 8.62890625 89.74414062 C8.3816593 94.19792692 8.05428643 97.95036158 6 102 C5.67 102 5.34 102 5 102 C5.01309204 101.28973663 5.02618408 100.57947327 5.03967285 99.84768677 C5.34082625 80.72311172 4.39495412 61.94578381 2.68218994 42.90905762 C2.25302551 38.11765595 1.83971026 33.32487292 1.43005371 28.5317688 C1.21304573 26.00579201 0.99085141 23.48025288 0.7623291 20.95529175 C0.15068987 13.94796137 -0.14031418 7.03363788 0 0 Z " fill="#134381" transform="translate(279,250)"/>
<path d="M0 0 C0.33 0 0.66 0 1 0 C1.00808685 1.18778046 1.01617371 2.37556091 1.02450562 3.59933472 C1.10244116 14.86638454 1.1902942 26.1333206 1.28752708 37.40022087 C1.33718956 43.19078108 1.38351885 48.98132564 1.421875 54.77197266 C1.45911162 60.37419422 1.5055681 65.97627434 1.55806351 71.57837296 C1.57640593 73.70144257 1.59158568 75.82454225 1.60334396 77.94765854 C1.68597583 92.36993774 1.93237314 106.84236752 5 121 C4.01 120.34 3.02 119.68 2 119 C1.3125 115.375 1.3125 115.375 1 112 C-0.32 111.67 -1.64 111.34 -3 111 C-2.01 110.01 -2.01 110.01 -1 109 C-0.68662475 106.97781646 -0.68662475 106.97781646 -0.7215271 104.62142944 C-0.71036362 103.70153732 -0.69920013 102.7816452 -0.68769836 101.83387756 C-0.68553818 100.82183762 -0.68337799 99.80979767 -0.68115234 98.76708984 C-0.67110672 97.7036586 -0.6610611 96.64022736 -0.65071106 95.54457092 C-0.61972985 92.01669881 -0.60280244 88.48890307 -0.5859375 84.9609375 C-0.56723787 82.51998226 -0.54766538 80.07903356 -0.5272522 77.63809204 C-0.47579771 71.20357105 -0.43624336 64.76902907 -0.39910889 58.33441162 C-0.35915255 51.77236686 -0.30802213 45.2104104 -0.2578125 38.6484375 C-0.1608956 25.76568803 -0.07616224 12.88288802 0 0 Z " fill="#134490" transform="translate(261,228)"/>
<path d="M0 0 C0.33 0 0.66 0 1 0 C1.25830258 7.74907749 1.25830258 7.74907749 -1 12 C-2.10567889 18.77925849 -2.21389267 25.51712281 -2.31640625 32.375 C-2.33718735 33.5400708 -2.35796844 34.7051416 -2.37937927 35.90551758 C-2.44442622 39.60362211 -2.50355006 43.30179376 -2.5625 47 C-2.60572793 49.51693384 -2.64934354 52.03386106 -2.69335938 54.55078125 C-2.80006128 60.70045122 -2.90190853 66.85018699 -3 73 C-3.33 73 -3.66 73 -4 73 C-5.00429464 63.31322782 -5.23880856 53.66572427 -5.25 43.9375 C-5.25167175 43.16708374 -5.25334351 42.39666748 -5.25506592 41.60290527 C-5.25692778 27.26579758 -4.11206551 13.80223728 0 0 Z " fill="#164A92" transform="translate(98,220)"/>
<path d="M0 0 C4.16235789 3.62872226 5.4673589 5.54879236 6 11 C6.12367033 14.84210094 6.11632408 18.67968544 6.09765625 22.5234375 C6.0962413 23.62475006 6.09482635 24.72606262 6.09336853 25.86074829 C6.08778752 29.36552692 6.07523846 32.8702408 6.0625 36.375 C6.05748255 38.75650949 6.05292007 41.13801999 6.04882812 43.51953125 C6.03782431 49.34637612 6.02110507 55.17318343 6 61 C5.34 61 4.68 61 4 61 C4 42.85 4 24.7 4 6 C3.01 5.67 2.02 5.34 1 5 C0.67 3.35 0.34 1.7 0 0 Z " fill="#104386" transform="translate(257,141)"/>
<path d="M0 0 C0.33 0 0.66 0 1 0 C1 1.98 1 3.96 1 6 C2.27875 6.020625 3.5575 6.04125 4.875 6.0625 C5.59429687 6.07410156 6.31359375 6.08570313 7.0546875 6.09765625 C9.08185404 6.12649242 9.08185404 6.12649242 11 5 C13.54615009 4.76827173 16.07396225 4.58105471 18.625 4.4375 C19.33140625 4.39431641 20.0378125 4.35113281 20.765625 4.30664062 C22.51018537 4.20055249 24.25506697 4.09977111 26 4 C25.67 2.68 25.34 1.36 25 0 C28 1 28 1 29 3 C32.64473199 3.89093449 35.42742531 4.23666047 39 3 C38.67 3.99 38.34 4.98 38 6 C18.2 7.485 18.2 7.485 -2 9 C-2 5.20442119 -1.49821059 3.37097383 0 0 Z " fill="#0F438C" transform="translate(283,352)"/>
<path d="M0 0 C0 0.33 0 0.66 0 1 C-10.39113779 2.30618118 -20.51074452 3.33358056 -31 3 C-31 3.99 -31 4.98 -31 6 C-29.35 6 -27.7 6 -26 6 C-26.33 7.98 -26.66 9.96 -27 12 C-26.34 12 -25.68 12 -25 12 C-24.67 15.63 -24.34 19.26 -24 23 C-24.66 23.33 -25.32 23.66 -26 24 C-26.18175781 23.19175781 -26.36351562 22.38351563 -26.55078125 21.55078125 C-26.92783203 19.94783203 -26.92783203 19.94783203 -27.3125 18.3125 C-27.55613281 17.25675781 -27.79976563 16.20101562 -28.05078125 15.11328125 C-28.99363297 12.02088282 -30.29600713 9.72543397 -32 7 C-32 6.34 -32 5.68 -32 5 C-32.66 5 -33.32 5 -34 5 C-34 4.01 -34 3.02 -34 2 C-22.64650681 0.78913248 -11.43227487 -0.38178283 0 0 Z " fill="#124790" transform="translate(296,130)"/>
<path d="M0 0 C0.33 0.66 0.66 1.32 1 2 C1.66 2.33 2.32 2.66 3 3 C2.63167408 28.18904792 2.63167408 28.18904792 -2 37 C-2.66 37 -3.32 37 -4 37 C-3.79503906 36.34 -3.59007812 35.68 -3.37890625 35 C-0.2515855 23.50821849 -0.26205807 11.84183971 0 0 Z " fill="#154995" transform="translate(401,275)"/>
<path d="M0 0 C0.99 0.33 1.98 0.66 3 1 C3.03758423 1.96824707 3.03758423 1.96824707 3.07592773 2.95605469 C3.19214433 5.88755894 3.31475442 8.81876217 3.4375 11.75 C3.47681641 12.76578125 3.51613281 13.7815625 3.55664062 14.828125 C3.59853516 15.8078125 3.64042969 16.7875 3.68359375 17.796875 C3.72025146 18.69760742 3.75690918 19.59833984 3.79467773 20.52636719 C3.9272268 22.94635517 3.9272268 22.94635517 4.51367188 25.02734375 C5.08239268 27.33420323 5.11287837 29.39097505 5.09765625 31.765625 C5.09443359 32.65507812 5.09121094 33.54453125 5.08789062 34.4609375 C5.07951172 35.38132813 5.07113281 36.30171875 5.0625 37.25 C5.05798828 38.18585938 5.05347656 39.12171875 5.04882812 40.0859375 C5.03706918 42.39069041 5.02063426 44.69531227 5 47 C4.67 47 4.34 47 4 47 C2.68 31.49 1.36 15.98 0 0 Z " fill="#124787" transform="translate(274,197)"/>
<path d="M0 0 C14.13681199 -1.03862292 26.99651777 3.86469431 39 11 C39.495 11.99 39.495 11.99 40 13 C36.25 14.125 36.25 14.125 34 13 C33.505 11.515 33.505 11.515 33 10 C27.487978 6.43878863 20.81543582 5.05614689 14.50390625 3.61328125 C12 3 12 3 10 2 C8.29636178 1.77377919 6.58671299 1.59111527 4.875 1.4375 C3.96492188 1.35371094 3.05484375 1.26992187 2.1171875 1.18359375 C1.41851562 1.12300781 0.71984375 1.06242188 0 1 C0 0.67 0 0.34 0 0 Z " fill="#164991" transform="translate(377,200)"/>
<path d="M0 0 C0.99 0.66 1.98 1.32 3 2 C2.79375 2.763125 2.5875 3.52625 2.375 4.3125 C1.66608797 7.21885944 1.66608797 7.21885944 4 10 C3.625 12.0625 3.625 12.0625 3 14 C3 14.66 3 15.32 3 16 C1 17.625 1 17.625 -1 19 C-1.22171552 16.39634072 -1.42784859 13.79303507 -1.625 11.1875 C-1.68945312 10.44951172 -1.75390625 9.71152344 -1.8203125 8.95117188 C-2.2265625 3.33984375 -2.2265625 3.33984375 0 0 Z " fill="#024094" transform="translate(284,272)"/>
<path d="M0 0 C12.54015157 -0.70391703 24.61151584 1.72110263 36 7 C32.27629967 8.24123344 31.53436559 7.41374623 28 6 C25.10348171 5.76028911 25.10348171 5.76028911 22.1875 5.875 C21.21167969 5.89304688 20.23585937 5.91109375 19.23046875 5.9296875 C18.49441406 5.95289063 17.75835937 5.97609375 17 6 C16.67 5.01 16.34 4.02 16 3 C10.72 2.34 5.44 1.68 0 1 C0 0.67 0 0.34 0 0 Z " fill="#174D99" transform="translate(211,127)"/>
<path d="M0 0 C-0.99 1.32 -1.98 2.64 -3 4 C-3 3.34 -3 2.68 -3 2 C-18.345 2.495 -18.345 2.495 -34 3 C-34 2.67 -34 2.34 -34 2 C-30.3965669 1.65841653 -26.79216548 1.32830184 -23.1875 1 C-22.18267578 0.90460938 -21.17785156 0.80921875 -20.14257812 0.7109375 C-13.40797288 0.10460648 -6.76066746 -0.12017481 0 0 Z " fill="#1B4E8D" transform="translate(332,127)"/>
<path d="M0 0 C0.66 0 1.32 0 2 0 C2.13277344 1.16917969 2.26554687 2.33835937 2.40234375 3.54296875 C2.58062013 5.09115839 2.75901161 6.63933478 2.9375 8.1875 C3.02451172 8.95642578 3.11152344 9.72535156 3.20117188 10.51757812 C3.64964421 14.38772828 4.1529001 18.19186624 5 22 C4.01 21.34 3.02 20.68 2 20 C1.3125 16.375 1.3125 16.375 1 13 C-0.32 12.67 -1.64 12.34 -3 12 C-2.34 11.34 -1.68 10.68 -1 10 C-0.53837573 7.56747339 -0.53837573 7.56747339 -0.375 4.875 C-0.30023438 3.96492188 -0.22546875 3.05484375 -0.1484375 2.1171875 C-0.09945313 1.41851562 -0.05046875 0.71984375 0 0 Z " fill="#104C98" transform="translate(261,327)"/>
<path d="M0 0 C0.78791653 2.36374959 1.03996317 3.80537037 0.53344727 6.2722168 C-0.04624664 9.23648223 -0.113138 11.93808923 -0.09765625 14.95703125 C-0.09443359 16.06884766 -0.09121094 17.18066406 -0.08789062 18.32617188 C-0.07951172 19.47666016 -0.07113281 20.62714844 -0.0625 21.8125 C-0.05798828 22.98232422 -0.05347656 24.15214844 -0.04882812 25.35742188 C-0.0370693 28.23833358 -0.02063426 31.11914044 0 34 C-2.19629783 30.45856475 -2.23275752 27.60332753 -2.1953125 23.484375 C-2.18886719 22.23398437 -2.18242187 20.98359375 -2.17578125 19.6953125 C-2.15902344 18.39335937 -2.14226562 17.09140625 -2.125 15.75 C-2.11597656 14.43257813 -2.10695313 13.11515625 -2.09765625 11.7578125 C-2.07408533 8.50502538 -2.04118022 5.25260411 -2 2 C-1.34 2 -0.68 2 0 2 C0 1.34 0 0.68 0 0 Z " fill="#164A91" transform="translate(343,265)"/>
<path d="M0 0 C7.66742597 5.96583144 7.66742597 5.96583144 9 11 C2.25 8.375 2.25 8.375 0 5 C-0.125 2.3125 -0.125 2.3125 0 0 Z " fill="#0D4999" transform="translate(426,220)"/>
<path d="M0 0 C2.46968633 2.46968633 3.06997969 4.57488587 4.1875 7.875 C4.55230469 8.92429688 4.91710937 9.97359375 5.29296875 11.0546875 C5.98462433 13.93594885 6.03230681 15.27786612 5 18 C4 17 4 17 3.9375 13.9375 C3.958125 12.968125 3.97875 11.99875 4 11 C1.525 10.01 1.525 10.01 -1 9 C-0.67 6.03 -0.34 3.06 0 0 Z " fill="#0F4898" transform="translate(443,245)"/>
<path d="M0 0 C0.33 0 0.66 0 1 0 C1 1.98 1 3.96 1 6 C4.96 6 8.92 6 13 6 C13 6.66 13 7.32 13 8 C8.05 8.33 3.1 8.66 -2 9 C-2 5.20442119 -1.49821059 3.37097383 0 0 Z " fill="#14519B" transform="translate(283,352)"/>
<path d="M0 0 C0.33 0 0.66 0 1 0 C1.16407047 4.92211401 1.19149326 7.61701348 -1 12 C-1.43473339 14.07169246 -1.80654223 16.15727751 -2.125 18.25 C-2.29257813 19.32765625 -2.46015625 20.4053125 -2.6328125 21.515625 C-2.75398438 22.33546875 -2.87515625 23.1553125 -3 24 C-3.33 24 -3.66 24 -4 24 C-3.61387352 15.62504986 -2.54824033 7.99730769 0 0 Z " fill="#14458C" transform="translate(98,220)"/>
<path d="M0 0 C3.05001831 3.66002197 7 9.07851471 7 14 C6.34 14 5.68 14 5 14 C4.566875 12.865625 4.13375 11.73125 3.6875 10.5625 C2.8521875 8.7990625 2.8521875 8.7990625 2 7 C1.01 6.67 0.02 6.34 -1 6 C-0.67 4.02 -0.34 2.04 0 0 Z " fill="#0E4C97" transform="translate(158,327)"/>
<path d="M0 0 C0 0.66 0 1.32 0 2 C-1.01320313 2.18175781 -1.01320313 2.18175781 -2.046875 2.3671875 C-2.93890625 2.53476563 -3.8309375 2.70234375 -4.75 2.875 C-6.07257813 3.11863281 -6.07257813 3.11863281 -7.421875 3.3671875 C-9.87767795 3.9699755 -11.76089514 4.86147211 -14 6 C-16.75 6.125 -16.75 6.125 -19 6 C-15.96332761 3.44317914 -13.33051924 2.30696173 -9.5 1.3125 C-8.5615625 1.06113281 -7.623125 0.80976563 -6.65625 0.55078125 C-4 0 -4 0 0 0 Z " fill="#154C94" transform="translate(356,201)"/>
<path d="M0 0 C1.5625 1.0625 1.5625 1.0625 3 3 C2.6875 6.6875 2.6875 6.6875 2 10 C1.01 8.68 0.02 7.36 -1 6 C-1 6.66 -1 7.32 -1 8 C-1.66 8 -2.32 8 -3 8 C-1.125 2.25 -1.125 2.25 0 0 Z " fill="#0A499C" transform="translate(108,193)"/>
<path d="M0 0 C0.144375 1.134375 0.28875 2.26875 0.4375 3.4375 C0.61171478 6.80777201 0.61171478 6.80777201 2 8 C2.04092937 10.33297433 2.04241723 12.66705225 2 15 C-0.00993705 11.98509443 -0.72623341 9.7850073 -1.625 6.3125 C-1.88539063 5.31863281 -2.14578125 4.32476562 -2.4140625 3.30078125 C-2.60742188 2.54152344 -2.80078125 1.78226562 -3 1 C-1 0 -1 0 0 0 Z " fill="#104790" transform="translate(399,260)"/>
<path d="M0 0 C0.99 0.33 1.98 0.66 3 1 C2.06398754 2.41764994 1.1261208 3.83407568 0.1875 5.25 C-0.33457031 6.03890625 -0.85664063 6.8278125 -1.39453125 7.640625 C-2.87134122 9.81092481 -4.40689873 11.91413768 -6 14 C-5.41162314 9.29298514 -3.44104424 3.44104424 0 0 Z " fill="#14458B" transform="translate(350,251)"/>
<path d="M0 0 C0.99 0 1.98 0 3 0 C2.21824485 4.84688192 0.60155722 9.3766367 -1 14 C-2.13732426 10.59598052 -1.83989957 8.22543336 -1.0625 4.75 C-0.86785156 3.85796875 -0.67320312 2.9659375 -0.47265625 2.046875 C-0.31667969 1.37140625 -0.16070312 0.6959375 0 0 Z " fill="#124D97" transform="translate(153,214)"/>
<path d="M0 0 C-5.39365686 2.7933465 -9.92652016 3.11908784 -16 3 C-16 2.67 -16 2.34 -16 2 C-10.60539047 -0.27141454 -5.73842251 -0.20413361 0 0 Z " fill="#184E97" transform="translate(395,369)"/>
<path d="M0 0 C2 4 2 4 2 7 C2.33 7.99 2.66 8.98 3 10 C1.35 10 -0.3 10 -2 10 C-1.34 6.7 -0.68 3.4 0 0 Z " fill="#0444A0" transform="translate(285,349)"/>
<path d="M0 0 C0.66 0 1.32 0 2 0 C2 0.66 2 1.32 2 2 C2.66 2 3.32 2 4 2 C4.33 3.32 4.66 4.64 5 6 C1.7 5.34 -1.6 4.68 -5 4 C-5 3.67 -5 3.34 -5 3 C-3.35 3 -1.7 3 0 3 C0 2.01 0 1.02 0 0 Z " fill="#0A4797" transform="translate(379,242)"/>
<path d="M0 0 C1.61725534 3.00950123 2.67582623 5.97103608 3.625 9.25 C3.88539063 10.14203125 4.14578125 11.0340625 4.4140625 11.953125 C4.60742188 12.62859375 4.80078125 13.3040625 5 14 C4.34 14 3.68 14 3 14 C-0.44419134 4.58997722 -0.44419134 4.58997722 0 0 Z " fill="#114993" transform="translate(152,310)"/>
<path d="M0 0 C0.99 0.66 1.98 1.32 3 2 C-0.465 4.97 -0.465 4.97 -4 8 C-3.67 6.35 -3.34 4.7 -3 3 C-2.01 2.67 -1.02 2.34 0 2 C0 1.34 0 0.68 0 0 Z " fill="#15438A" transform="translate(174,185)"/>
<path d="M0 0 C4 4.75 4 4.75 4 7 C1.36 7 -1.28 7 -4 7 C-4 6.34 -4 5.68 -4 5 C-2.68 4.67 -1.36 4.34 0 4 C0 2.68 0 1.36 0 0 Z " fill="#16458A" transform="translate(266,349)"/>
<path d="M0 0 C0.66 0 1.32 0 2 0 C2.75 1.75 2.75 1.75 3 4 C1.0625 6.25 1.0625 6.25 -1 8 C-1.125 2.25 -1.125 2.25 0 0 Z " fill="#0D49A1" transform="translate(435,336)"/>
<path d="M0 0 C1.32 0.33 2.64 0.66 4 1 C2.35 2.65 0.7 4.3 -1 6 C-1.66 5.67 -2.32 5.34 -3 5 C-2.01 3.35 -1.02 1.7 0 0 Z " fill="#1D4B95" transform="translate(428,347)"/>
<path d="M0 0 C0.99 0.33 1.98 0.66 3 1 C1.68197635 4.64991166 0.40785992 6.7895201 -2 10 C-1.34 6.7 -0.68 3.4 0 0 Z " fill="#134A97" transform="translate(440,329)"/>
<path d="M0 0 C1.65 0 3.3 0 5 0 C3.02 2.97 3.02 2.97 1 6 C-0.0625 4.125 -0.0625 4.125 -1 2 C-0.67 1.34 -0.34 0.68 0 0 Z " fill="#0B4A9D" transform="translate(163,195)"/>
<path d="M0 0 C4.92307692 4.18461538 4.92307692 4.18461538 5.3125 8.3125 C5.209375 9.199375 5.10625 10.08625 5 11 C4.67 11 4.34 11 4 11 C4 9.35 4 7.7 4 6 C3.01 5.67 2.02 5.34 1 5 C0.67 3.35 0.34 1.7 0 0 Z " fill="#154D93" transform="translate(257,141)"/>
<path d="M0 0 C0.33 0 0.66 0 1 0 C1.36923077 5.53846154 1.36923077 5.53846154 -0.5 7.875 C-1.2425 8.431875 -1.2425 8.431875 -2 9 C-2 5.20442119 -1.49821059 3.37097383 0 0 Z " fill="#174583" transform="translate(283,352)"/>
<path d="M0 0 C2.22189824 2.22189824 2.92598892 4.08482708 4 7 C1.525 6.01 1.525 6.01 -1 5 C-1 2 -1 2 0 0 Z " fill="#0E4BA3" transform="translate(324,353)"/>
<path d="" fill="#000000" transform="translate(0,0)"/>
</svg>
